<?xml version="1.0" encoding="UTF-8"?>
<svg width="512" height="512" viewBox="0 0 512 512" fill="none" xmlns="http://www.w3.org/2000/svg">
  <rect width="512" height="512" rx="128" fill="url(#paint0_linear_1_2)"/>
  <path d="M256 96C186.308 96 130 152.308 130 222C130 291.692 186.308 348 256 348C325.692 348 382 291.692 382 222C382 152.308 325.692 96 256 96ZM256 328C197.383 328 150 280.617 150 222C150 163.383 197.383 116 256 116C314.617 116 362 163.383 362 222C362 280.617 314.617 328 256 328Z" fill="white"/>
  <path d="M256 142C211.869 142 176 177.869 176 222C176 266.131 211.869 302 256 302C300.131 302 336 266.131 336 222C336 177.869 300.131 142 256 142ZM256 282C222.794 282 196 255.206 196 222C196 188.794 222.794 162 256 162C289.206 162 316 188.794 316 222C316 255.206 289.206 282 256 282Z" fill="white"/>
  <path d="M256 180C232.804 180 214 198.804 214 222C214 245.196 232.804 264 256 264C279.196 264 298 245.196 298 222C298 198.804 279.196 180 256 180ZM256 244C243.869 244 234 234.131 234 222C234 209.869 243.869 200 256 200C268.131 200 278 209.869 278 222C278 234.131 268.131 244 256 244Z" fill="white"/>
  <path d="M130 400V373C130 369.134 133.134 366 137 366H375C378.866 366 382 369.134 382 373V400C382 403.866 378.866 407 375 407H137C133.134 407 130 403.866 130 400Z" fill="white"/>
  <path d="M130 139V112C130 108.134 133.134 105 137 105H375C378.866 105 382 108.134 382 112V139C382 142.866 378.866 146 375 146H137C133.134 146 130 142.866 130 139Z" fill="white"/>
  <path d="M198 105L198 407" stroke="white" stroke-width="12" stroke-linecap="round"/>
  <path d="M314 105L314 407" stroke="white" stroke-width="12" stroke-linecap="round"/>
  <path d="M256 105L256 407" stroke="white" stroke-width="12" stroke-linecap="round"/>
  <path d="M130 407L130 105" stroke="white" stroke-width="12" stroke-linecap="round"/>
  <path d="M382 407L382 105" stroke="white" stroke-width="12" stroke-linecap="round"/>
  <path d="M94 212H76C72.6863 212 70 214.686 70 218V322C70 325.314 72.6863 328 76 328H94C97.3137 328 100 325.314 100 322V218C100 214.686 97.3137 212 94 212Z" fill="#FFD700"/>
  <path d="M436 212H418C414.686 212 412 214.686 412 218V322C412 325.314 414.686 328 418 328H436C439.314 328 442 325.314 442 322V218C442 214.686 439.314 212 436 212Z" fill="#FFD700"/>
  <path d="M158 407L222 382L220 368L150 395L158 407Z" fill="#FFD700"/>
  <path d="M354 407L290 382L292 368L362 395L354 407Z" fill="#FFD700"/>
  <defs>
    <linearGradient id="paint0_linear_1_2" x1="0" y1="0" x2="512" y2="512" gradientUnits="userSpaceOnUse">
      <stop stop-color="#003399"/>
      <stop offset="1" stop-color="#0066CC"/>
    </linearGradient>
  </defs>
</svg>