<svg width="512" height="512" viewBox="0 0 512 512" fill="none" xmlns="http://www.w3.org/2000/svg">
<rect width="512" height="512" rx="100" fill="url(#paint0_linear_1_2)"/>
<path d="M256 150C209.608 150 172 187.608 172 234C172 280.392 209.608 318 256 318C302.392 318 340 280.392 340 234C340 187.608 302.392 150 256 150ZM256 302C218.486 302 188 271.514 188 234C188 196.486 218.486 166 256 166C293.514 166 324 196.486 324 234C324 271.514 293.514 302 256 302Z" fill="white"/>
<path d="M256 176C225.072 176 200 201.072 200 232C200 262.928 225.072 288 256 288C286.928 288 312 262.928 312 232C312 201.072 286.928 176 256 176ZM256 272C234.355 272 216 253.645 216 232C216 210.355 234.355 192 256 192C277.645 192 296 210.355 296 232C296 253.645 277.645 272 256 272Z" fill="white"/>
<path d="M256 200C239.431 200 226 213.431 226 230C226 246.569 239.431 260 256 260C272.569 260 286 246.569 286 230C286 213.431 272.569 200 256 200ZM256 244C248.268 244 242 237.732 242 230C242 222.268 248.268 216 256 216C263.732 216 270 222.268 270 230C270 237.732 263.732 244 256 244Z" fill="white"/>
<path d="M372 115H140C139.471 115 138.961 115.196 138.586 115.586C138.211 115.976 138 116.495 138 117.037V117.037C138 117.579 138.211 118.099 138.586 118.489C138.961 118.879 139.471 119.075 140 119.075H372C372.529 119.075 373.039 118.879 373.414 118.489C373.789 118.099 374 117.579 374 117.037V117.037C374 116.495 373.789 115.976 373.414 115.586C373.039 115.196 372.529 115 372 115Z" fill="white"/>
<path d="M372 392.925H140C139.471 392.925 138.961 393.121 138.586 393.511C138.211 393.901 138 394.421 138 394.963V394.963C138 395.505 138.211 396.024 138.586 396.414C138.961 396.804 139.471 397 140 397H372C372.529 397 373.039 396.804 373.414 396.414C373.789 396.024 374 395.505 374 394.963V394.963C374 394.421 373.789 393.901 373.414 393.511C373.039 393.121 372.529 392.925 372 392.925Z" fill="white"/>
<path d="M256 115V397" stroke="white" stroke-width="4" stroke-linecap="round"/>
<path d="M183.5 350.5C177.5 338.5 150 307 150 307H362C362 307 336 337 327.5 350.5C319 364 298.5 373 256 373C213.5 373 189.5 362.5 183.5 350.5Z" fill="white"/>
<path d="M158.5 165.5C165.5 151.5 185 139 256 139C327 139 350 151.5 355 165.5C360 179.5 363 202.5 363 202.5H149C149 202.5 151.5 179.5 158.5 165.5Z" fill="white"/>
<path d="M105 256H89C84.5817 256 81 259.582 81 264V349C81 353.418 84.5817 357 89 357H105C109.418 357 113 353.418 113 349V264C113 259.582 109.418 256 105 256Z" fill="white"/>
<path d="M423 256H407C402.582 256 399 259.582 399 264V349C399 353.418 402.582 357 407 357H423C427.418 357 431 353.418 431 349V264C431 259.582 427.418 256 423 256Z" fill="white"/>
<path d="M178 124L178 139C178 143.418 181.582 147 186 147L326 147C330.418 147 334 143.418 334 139L334 124C334 119.582 330.418 116 326 116L186 116C181.582 116 178 119.582 178 124Z" fill="white"/>
<path d="M178 372.5L178 388C178 392.418 181.582 396 186 396L326 396C330.418 396 334 392.418 334 388L334 372.5C334 368.082 330.418 364.5 326 364.5L186 364.5C181.582 364.5 178 368.082 178 372.5Z" fill="white"/>
<path d="M170.5 266L217.5 282L214 288L169 272L170.5 266Z" fill="#FFD700"/>
<path d="M341.5 266L294.5 282L298 288L343 272L341.5 266Z" fill="#FFD700"/>
<defs>
<linearGradient id="paint0_linear_1_2" x1="0" y1="0" x2="512" y2="512" gradientUnits="userSpaceOnUse">
<stop stop-color="#003399"/>
<stop offset="1" stop-color="#0066CC"/>
</linearGradient>
</defs>
</svg>