<?xml version="1.0" encoding="UTF-8"?>
<svg width="32px" height="32px" viewBox="0 0 32 32" version="1.1" xmlns="http://www.w3.org/2000/svg">
  <defs>
    <linearGradient id="gradient" x1="0%" y1="0%" x2="100%" y2="100%">
      <stop offset="0%" stop-color="#3b82f6"/>
      <stop offset="100%" stop-color="#1e40af"/>
    </linearGradient>
    <filter id="shadow" x="-20%" y="-20%" width="140%" height="140%">
      <feDropShadow dx="0" dy="1" stdDeviation="1" flood-opacity="0.3" />
    </filter>
  </defs>
  <g stroke="none" stroke-width="1" fill="none" fill-rule="evenodd">
    <circle fill="url(#gradient)" cx="16" cy="16" r="16"/>
    <path d="M16,8 L22,10 L22,16 C22,19.3137 19.3137,22 16,22 C12.6863,22 10,19.3137 10,16 L10,10 L16,8 Z" 
          fill="#FFFFFF" fill-opacity="0.9" filter="url(#shadow)"/>
    <path d="M16,11 L18,12 L18,16 C18,17.1046 17.1046,18 16,18 C14.8954,18 14,17.1046 14,16 L14,12 L16,11 Z" 
          fill="url(#gradient)"/>
    <path d="M22,10 L25,12 L25,15 C25,15.5523 24.5523,16 24,16 C23.4477,16 23,15.5523 23,15 L23,12.5 L22,12 L22,10 Z" 
          fill="#FFFFFF" fill-opacity="0.7"/>
    <path d="M10,10 L7,12 L7,15 C7,15.5523 7.44772,16 8,16 C8.55228,16 9,15.5523 9,15 L9,12.5 L10,12 L10,10 Z" 
          fill="#FFFFFF" fill-opacity="0.7"/>
    <circle fill="#FFFFFF" cx="16" cy="8" r="1"/>
  </g>
</svg>