<?xml version="1.0" encoding="UTF-8"?>
<svg width="32px" height="32px" viewBox="0 0 32 32" version="1.1" xmlns="http://www.w3.org/2000/svg">
  <defs>
    <linearGradient id="shieldGradient" x1="0%" y1="0%" x2="100%" y2="100%">
      <stop offset="0%" stop-color="#3b82f6" />
      <stop offset="100%" stop-color="#1e40af" />
    </linearGradient>
    <linearGradient id="shieldHighlight" x1="0%" y1="0%" x2="100%" y2="0%">
      <stop offset="0%" stop-color="#FFFFFF" stop-opacity="0.8" />
      <stop offset="100%" stop-color="#FFFFFF" stop-opacity="0" />
    </linearGradient>
    <linearGradient id="starGradient" x1="0%" y1="0%" x2="100%" y2="100%">
      <stop offset="0%" stop-color="#FFDF00" />
      <stop offset="100%" stop-color="#FFB800" />
    </linearGradient>
    <filter id="drop-shadow" x="-20%" y="-20%" width="140%" height="140%">
      <feDropShadow dx="0" dy="1" stdDeviation="0.5" flood-opacity="0.3" />
    </filter>
  </defs>
  <g stroke="none" stroke-width="1" fill="none" fill-rule="evenodd">
    <!-- Círculo de fundo -->
    <circle fill="#172554" cx="16" cy="16" r="16" />
    
    <!-- Escudo -->
    <path d="M16,5 L26,9 L26,16 C26,22.0751 21.5228,27 16,27 C10.4772,27 6,22.0751 6,16 L6,9 L16,5 Z" 
          fill="url(#shieldGradient)" filter="url(#drop-shadow)" />
    
    <!-- Highlight no escudo -->
    <path d="M16,5 L26,9 L26,10 L16,6 L6,10 L6,9 L16,5 Z" 
          fill="url(#shieldHighlight)" />
    
    <!-- Emblema central -->
    <path d="M16,10 L19,11.5 L19,16 C19,17.6569 17.6569,19 16,19 C14.3431,19 13,17.6569 13,16 L13,11.5 L16,10 Z" 
          fill="#FFFFFF" fill-opacity="0.9" />
    
    <!-- Estrela superior -->
    <path d="M16,8 L16.8,9.5 L18.5,9.8 L17.25,11 L17.6,12.7 L16,11.9 L14.4,12.7 L14.75,11 L13.5,9.8 L15.2,9.5 Z"
          fill="url(#starGradient)" filter="url(#drop-shadow)" />
    
    <!-- Detalhe da linha central -->
    <path d="M16,12 L16,17" stroke="#3b82f6" stroke-width="0.7" />
    
    <!-- Decorações laterais -->
    <path d="M10,14 L11,14.5 L11,16 L10,16.5 Z" fill="#FFFFFF" fill-opacity="0.6" />
    <path d="M22,14 L21,14.5 L21,16 L22,16.5 Z" fill="#FFFFFF" fill-opacity="0.6" />
  </g>
</svg>